<svg width="94" height="94" viewBox="0 0 94 94" fill="none" xmlns="http://www.w3.org/2000/svg">
<circle cx="47" cy="47" r="47" fill="#0A59F8"/>
<path d="M26.75 33.5H67.25V29H26.75C24.275 29 22.25 31.025 22.25 33.5V60.5C22.25 62.975 24.275 65 26.75 65H35.75V60.5H26.75V33.5ZM49.25 47H40.25V51.005C38.8775 52.2425 38 53.9975 38 56C38 58.0025 38.8775 59.7575 40.25 60.995V65H49.25V60.995C50.6225 59.7575 51.5 57.98 51.5 56C51.5 54.02 50.6225 52.2425 49.25 51.005V47ZM44.75 59.375C42.8825 59.375 41.375 57.8675 41.375 56C41.375 54.1325 42.8825 52.625 44.75 52.625C46.6175 52.625 48.125 54.1325 48.125 56C48.125 57.8675 46.6175 59.375 44.75 59.375ZM69.5 38H56C54.875 38 53.75 39.125 53.75 40.25V62.75C53.75 63.875 54.875 65 56 65H69.5C70.625 65 71.75 63.875 71.75 62.75V40.25C71.75 39.125 70.625 38 69.5 38ZM67.25 60.5H58.25V42.5H67.25V60.5Z" fill="#A6E5B8"/>
</svg>
