<svg width="562" height="294" viewBox="0 0 562 294" fill="none" xmlns="http://www.w3.org/2000/svg">
<g clip-path="url(#clip0_1366_4869)">
<path d="M546.135 157.671C545.273 157.173 544.53 156.491 543.959 155.675C543.389 154.858 543.004 153.927 542.832 152.946C542.661 151.965 542.706 150.958 542.966 149.996C543.226 149.035 543.693 148.142 544.335 147.38L537.229 95.4543L552.032 96.1808L554.356 146.829C555.564 147.992 556.304 149.559 556.434 151.231C556.565 152.903 556.077 154.565 555.064 155.901C554.05 157.238 552.582 158.156 550.936 158.483C549.29 158.809 547.582 158.52 546.135 157.671Z" fill="#A0616A"/>
<path d="M554.063 96.8689C553.76 97.2262 553.371 97.501 552.933 97.6679L539.631 102.743C538.963 102.998 538.222 102.988 537.562 102.713C536.901 102.439 536.371 101.922 536.081 101.269L524.297 74.7944C523.166 72.3386 522.973 69.5536 523.756 66.9656C524.334 65.1184 525.401 63.4615 526.842 62.1695C528.284 60.8774 530.047 59.998 531.947 59.624C533.408 59.3234 534.917 59.3447 536.369 59.6865C538.109 60.0742 539.725 60.8896 541.07 62.0587C542.415 63.2278 543.447 64.7138 544.074 66.3822L554.551 94.0711C554.726 94.5385 554.774 95.0444 554.688 95.5363C554.602 96.0283 554.387 96.4883 554.063 96.8689Z" fill="#0A59F8"/>
<path d="M484.744 284.41H475.54L472.202 248.753L484.744 248.921V284.41Z" fill="#A0616A"/>
<path d="M468.966 281.782H486.713V292.955H457.788C457.788 289.992 458.966 287.15 461.061 285.054C463.157 282.959 466 281.782 468.964 281.782H468.966Z" fill="#2F2E41"/>
<path d="M527.535 284.411H518.331L513.953 248.921H527.536L527.535 284.411Z" fill="#A0616A"/>
<path d="M511.757 281.782H529.504V292.955H500.579C500.579 289.992 501.757 287.15 503.853 285.054C505.948 282.959 508.791 281.782 511.755 281.782H511.757Z" fill="#2F2E41"/>
<path d="M528.693 271.784L514.239 270.714C513.417 270.653 512.644 270.294 512.068 269.704C511.492 269.114 511.151 268.333 511.11 267.51L507.887 200.917C507.856 200.278 507.593 199.672 507.148 199.213C506.702 198.754 506.104 198.474 505.466 198.424C504.828 198.375 504.194 198.56 503.683 198.944C503.171 199.329 502.818 199.887 502.689 200.513L489.244 266.114C489.077 266.921 488.622 267.639 487.963 268.134C487.304 268.629 486.487 268.867 485.665 268.802L472.598 267.757C472.156 267.721 471.725 267.599 471.33 267.398C470.935 267.196 470.583 266.918 470.296 266.581C470.008 266.243 469.789 265.852 469.653 265.43C469.516 265.008 469.464 264.564 469.5 264.121C469.501 264.099 469.503 264.077 469.505 264.055L481.628 142.865C481.675 142.392 481.822 141.933 482.059 141.521C482.297 141.108 482.618 140.75 483.003 140.47C483.389 140.19 483.829 139.995 484.295 139.897C484.761 139.799 485.242 139.8 485.707 139.902L531.806 149.92C532.569 150.087 533.25 150.513 533.735 151.126C534.22 151.738 534.478 152.499 534.466 153.28L532.319 268.479C532.303 269.362 531.94 270.204 531.31 270.824C530.681 271.443 529.833 271.791 528.949 271.794C528.864 271.793 528.779 271.79 528.693 271.784Z" fill="#0A59F8"/>
<path d="M516.046 41.5369C526.229 41.5369 534.485 33.284 534.485 23.1036C534.485 12.9233 526.229 4.67041 516.046 4.67041C505.863 4.67041 497.608 12.9233 497.608 23.1036C497.608 33.284 505.863 41.5369 516.046 41.5369Z" fill="#A0616A"/>
<path d="M487.438 152.212C485.665 150.623 484.258 148.668 483.312 146.483C482.367 144.298 481.907 141.934 481.963 139.554C481.963 113.06 504.902 53.8666 505.62 52.0231C505.687 51.5782 506.292 51.386 509.471 49.2414C512.649 47.0969 517.23 46.7656 523.089 48.2616C523.684 48.414 524.226 48.7268 524.657 49.1659C525.087 49.605 525.388 50.1537 525.528 50.7522L526.618 52.3262C526.713 52.7257 526.901 53.0972 527.166 53.4109C527.431 53.7245 527.766 53.9715 528.144 54.132C532.868 56.122 547.886 65.2983 542.768 99.832C538.015 131.911 536.086 150.774 535.477 157.4C535.406 158.186 535.061 158.922 534.502 159.479C533.943 160.037 533.207 160.381 532.421 160.451C530.104 160.658 526.128 160.934 521.396 160.934C510.415 160.931 495.358 159.452 487.438 152.212Z" fill="#A6E5B8"/>
<path d="M465.405 142.397C464.967 141.503 464.73 140.523 464.711 139.527C464.692 138.531 464.892 137.543 465.296 136.633C465.7 135.723 466.299 134.912 467.051 134.258C467.803 133.604 468.689 133.123 469.646 132.849L492.688 85.7732L504.575 94.6222L478.275 137.973C478.631 139.613 478.372 141.325 477.549 142.787C476.725 144.248 475.394 145.356 473.807 145.902C472.221 146.447 470.489 146.392 468.941 145.746C467.392 145.1 466.135 143.908 465.407 142.397H465.405Z" fill="#A0616A"/>
<path d="M505.876 96.328C505.425 96.4557 504.949 96.4675 504.492 96.3623L490.617 93.1666C489.92 93.0063 489.311 92.5849 488.916 91.9893C488.52 91.3937 488.368 90.6692 488.491 89.9649L493.465 61.4172C493.895 58.7477 495.287 56.3278 497.379 54.6146C498.889 53.4032 500.698 52.6214 502.615 52.3516C504.532 52.0818 506.487 52.334 508.273 53.0816C509.653 53.6458 510.895 54.504 511.91 55.5965C513.138 56.8876 514.025 58.4646 514.491 60.1848C514.956 61.905 514.985 63.714 514.575 65.4482L507.841 94.2741C507.727 94.7607 507.484 95.2078 507.138 95.569C506.793 95.9302 506.357 96.1922 505.875 96.328H505.876Z" fill="#0A59F8"/>
<path d="M511.729 39.7587C510.831 38.8435 510.169 37.7248 509.798 36.4981C509.426 35.2714 509.358 33.9732 509.597 32.7141C510.24 29.3539 510.618 27.1529 510.689 26.3525C510.934 23.6152 508.166 21.3987 505.427 21.0432C505.321 21.0291 505.232 21.0203 505.158 21.0143C505.225 21.0815 505.303 21.1527 505.369 21.2159C505.889 21.7045 506.536 22.3127 506.382 22.9404C506.29 23.3181 505.944 23.5863 505.326 23.759C501.043 24.9573 497.743 23.8571 494.944 20.2945C494.156 19.2821 493.615 18.1007 493.363 16.8435C492.36 11.924 495.032 7.73036 497.451 5.07909C499.446 2.89288 502.678 0.240258 506.756 0.011758C509.926 -0.164994 513.696 1.65897 514.822 4.94601C515.355 4.15832 516.063 3.50533 516.892 3.03874C517.72 2.57215 518.646 2.30477 519.595 2.25778C521.76 2.21086 523.891 2.80324 525.72 3.96078C534.661 9.08053 538.503 21.2771 534.111 30.5945C531.348 36.4555 525.361 40.8185 518.488 41.9812C518.058 42.0542 517.622 42.0911 517.186 42.0914C516.166 42.0896 515.156 41.8824 514.218 41.4821C513.279 41.0818 512.431 40.4966 511.724 39.7614L511.729 39.7587Z" fill="#2F2E41"/>
<path d="M244.468 131.434C244.081 130.514 243.431 129.727 242.601 129.171C241.771 128.616 240.795 128.316 239.796 128.309H146.539C145.199 128.31 143.913 128.842 142.965 129.79C142.017 130.738 141.485 132.023 141.484 133.363V251.309C141.485 252.649 142.017 253.935 142.965 254.882C143.913 255.83 145.199 256.363 146.539 256.363H239.8C241.14 256.361 242.425 255.828 243.372 254.881C244.32 253.934 244.853 252.649 244.855 251.309V133.363C244.857 132.701 244.727 132.045 244.472 131.434H244.468ZM243.729 251.309C243.728 252.352 243.313 253.351 242.576 254.088C241.839 254.825 240.839 255.24 239.796 255.241H146.539C145.496 255.241 144.496 254.827 143.759 254.089C143.021 253.352 142.607 252.353 142.607 251.31V133.364C142.608 132.321 143.023 131.322 143.76 130.585C144.497 129.848 145.497 129.434 146.539 129.432H239.8C240.585 129.435 241.352 129.672 242.002 130.112C242.652 130.553 243.156 131.177 243.45 131.905C243.507 132.05 243.557 132.198 243.598 132.349C243.687 132.68 243.732 133.021 243.732 133.364L243.729 251.309Z" fill="#0A59F8"/>
<path d="M225.007 156.156H196.916C196.32 156.156 195.749 155.919 195.327 155.498C194.906 155.077 194.669 154.505 194.669 153.909C194.669 153.313 194.906 152.742 195.327 152.321C195.749 151.899 196.32 151.663 196.916 151.663H225.007C225.603 151.663 226.174 151.899 226.596 152.321C227.017 152.742 227.254 153.313 227.254 153.909C227.254 154.505 227.017 155.077 226.596 155.498C226.174 155.919 225.603 156.156 225.007 156.156Z" fill="#0A59F8"/>
<path d="M225.007 167.951H196.916C196.32 167.951 195.749 167.714 195.327 167.293C194.906 166.871 194.669 166.3 194.669 165.704C194.669 165.108 194.906 164.537 195.327 164.115C195.749 163.694 196.32 163.457 196.916 163.457H225.007C225.603 163.457 226.174 163.694 226.596 164.115C227.017 164.537 227.254 165.108 227.254 165.704C227.254 166.3 227.017 166.871 226.596 167.293C226.174 167.714 225.603 167.951 225.007 167.951Z" fill="#0A59F8"/>
<path d="M182.503 174.667H161.975C161.305 174.666 160.662 174.399 160.188 173.925C159.714 173.452 159.447 172.809 159.447 172.139V147.921C159.447 147.251 159.714 146.608 160.188 146.134C160.662 145.66 161.305 145.394 161.975 145.393H182.503C183.174 145.394 183.816 145.66 184.29 146.134C184.764 146.608 185.031 147.251 185.032 147.921V172.139C185.031 172.809 184.764 173.452 184.29 173.925C183.816 174.399 183.174 174.666 182.503 174.667Z" fill="#0A59F8"/>
<path d="M224.812 192.102H161.328C160.732 192.102 160.16 191.865 159.739 191.444C159.317 191.022 159.081 190.451 159.081 189.855C159.081 189.259 159.317 188.688 159.739 188.266C160.16 187.845 160.732 187.608 161.328 187.608H224.812C225.107 187.608 225.399 187.667 225.672 187.779C225.945 187.892 226.192 188.058 226.401 188.266C226.61 188.475 226.775 188.723 226.888 188.995C227.001 189.268 227.059 189.56 227.059 189.855C227.059 190.15 227.001 190.442 226.888 190.715C226.775 190.987 226.61 191.235 226.401 191.444C226.192 191.652 225.945 191.818 225.672 191.931C225.399 192.044 225.107 192.102 224.812 192.102Z" fill="#0A59F8"/>
<path d="M224.812 203.896H161.328C160.732 203.896 160.16 203.66 159.739 203.238C159.317 202.817 159.081 202.246 159.081 201.65C159.081 201.054 159.317 200.482 159.739 200.061C160.16 199.64 160.732 199.403 161.328 199.403H224.812C225.408 199.403 225.98 199.64 226.401 200.061C226.823 200.482 227.059 201.054 227.059 201.65C227.059 202.246 226.823 202.817 226.401 203.238C225.98 203.66 225.408 203.896 224.812 203.896Z" fill="#0A59F8"/>
<path d="M224.812 215.691H161.328C160.732 215.691 160.16 215.454 159.739 215.033C159.317 214.612 159.081 214.04 159.081 213.444C159.081 212.848 159.317 212.277 159.739 211.856C160.16 211.434 160.732 211.198 161.328 211.198H224.812C225.408 211.198 225.98 211.434 226.401 211.856C226.823 212.277 227.059 212.848 227.059 213.444C227.059 214.04 226.823 214.612 226.401 215.033C225.98 215.454 225.408 215.691 224.812 215.691Z" fill="#0A59F8"/>
<path d="M224.812 227.486H161.328C160.732 227.486 160.16 227.249 159.739 226.828C159.317 226.406 159.081 225.835 159.081 225.239C159.081 224.643 159.317 224.072 159.739 223.65C160.16 223.229 160.732 222.992 161.328 222.992H224.812C225.408 222.992 225.98 223.229 226.401 223.65C226.823 224.072 227.059 224.643 227.059 225.239C227.059 225.835 226.823 226.406 226.401 226.828C225.98 227.249 225.408 227.486 224.812 227.486Z" fill="#0A59F8"/>
<path d="M224.812 239.28H161.328C160.732 239.28 160.16 239.044 159.739 238.622C159.317 238.201 159.081 237.629 159.081 237.034C159.081 236.438 159.317 235.866 159.739 235.445C160.16 235.024 160.732 234.787 161.328 234.787H224.812C225.408 234.787 225.98 235.024 226.401 235.445C226.823 235.866 227.059 236.438 227.059 237.034C227.059 237.629 226.823 238.201 226.401 238.622C225.98 239.044 225.408 239.28 224.812 239.28Z" fill="#0A59F8"/>
<path d="M430.24 294H561.328C561.506 294 561.677 293.929 561.803 293.803C561.929 293.677 562 293.506 562 293.328C562 293.15 561.929 292.979 561.803 292.853C561.677 292.727 561.506 292.656 561.328 292.656H430.24C430.062 292.656 429.891 292.727 429.765 292.853C429.639 292.979 429.568 293.15 429.568 293.328C429.568 293.506 429.639 293.677 429.765 293.803C429.891 293.929 430.062 294 430.24 294Z" fill="#3F3D56"/>
<path d="M194.747 99.8913C206.725 99.8913 216.435 90.1839 216.435 78.2093C216.435 66.2347 206.725 56.5273 194.747 56.5273C182.769 56.5273 173.059 66.2347 173.059 78.2093C173.059 90.1839 182.769 99.8913 194.747 99.8913Z" fill="#A6E5B8"/>
<path d="M192.598 86.4802C192.11 86.481 191.635 86.3232 191.245 86.0306L191.221 86.0124L186.124 82.1145C185.887 81.9337 185.689 81.7081 185.54 81.4506C185.391 81.193 185.294 80.9086 185.255 80.6137C185.215 80.3187 185.235 80.0189 185.312 79.7314C185.388 79.4439 185.521 79.1744 185.702 78.9382C185.883 78.7021 186.109 78.5039 186.367 78.3551C186.625 78.2062 186.909 78.1096 187.205 78.0708C187.5 78.032 187.799 78.0518 188.087 78.1289C188.374 78.206 188.644 78.339 188.88 78.5203L192.181 81.0513L199.983 70.8763C200.348 70.3999 200.888 70.0881 201.483 70.0095C202.078 69.9309 202.681 70.0919 203.157 70.4571L203.158 70.4576L203.109 70.5248L203.159 70.4576C203.635 70.8234 203.947 71.363 204.025 71.9581C204.104 72.5532 203.943 73.1551 203.578 73.6318L194.402 85.5944C194.189 85.8701 193.917 86.0931 193.604 86.2462C193.292 86.3994 192.948 86.4785 192.6 86.4775L192.598 86.4802Z" fill="white"/>
<path d="M51.9623 68.3043C60.079 68.3043 66.6589 61.7262 66.6589 53.6117C66.6589 45.4973 60.079 38.9192 51.9623 38.9192C43.8455 38.9192 37.2656 45.4973 37.2656 53.6117C37.2656 61.7262 43.8455 68.3043 51.9623 68.3043Z" fill="#A6E5B8"/>
<path d="M50.5052 59.2162C50.1746 59.2168 49.8528 59.1099 49.5883 58.9118L49.5721 58.8997L46.1181 56.2558C45.8044 56.0052 45.6015 55.6416 45.5528 55.2431C45.5042 54.8446 45.6137 54.4429 45.8579 54.1242C46.1021 53.8055 46.4615 53.5952 46.859 53.5383C47.2566 53.4815 47.6605 53.5827 47.9843 53.8203L50.2215 55.5354L55.5081 48.6427C55.7556 48.3199 56.1213 48.1087 56.5247 48.0554C56.928 48.0022 57.336 48.1113 57.6589 48.3588L57.6592 48.3591L57.6263 48.4035L57.6599 48.3598C57.9824 48.6076 58.1934 48.9733 58.2466 49.3764C58.2997 49.7796 58.1908 50.1874 57.9436 50.5104L51.7253 58.6181C51.5815 58.805 51.3966 58.9562 51.1849 59.06C50.9732 59.1639 50.7404 59.2176 50.5046 59.2169L50.5052 59.2162Z" fill="white"/>
<path d="M93.2616 88.0616C92.9563 87.3374 92.4455 86.7185 91.7922 86.2815C91.1389 85.8444 90.3718 85.6084 89.5857 85.6025H16.2028C15.148 85.6031 14.1366 86.0222 13.3907 86.7678C12.6449 87.5135 12.2256 88.5246 12.2251 89.5791V182.386C12.2256 183.44 12.6449 184.451 13.3907 185.197C14.1366 185.943 15.148 186.362 16.2028 186.362H89.5857C90.6403 186.361 91.6512 185.941 92.3968 185.196C93.1425 184.451 93.562 183.44 93.5634 182.386V89.5791C93.5651 89.0582 93.4624 88.5422 93.2616 88.0616ZM92.6801 182.386C92.6785 183.206 92.3522 183.991 91.7726 184.571C91.193 185.15 90.4074 185.476 89.5878 185.478H16.2028C15.3826 185.478 14.5961 185.152 14.0162 184.572C13.4363 183.993 13.1104 183.206 13.1104 182.386V89.5791C13.112 88.7597 13.4384 87.9743 14.0179 87.3949C14.5975 86.8155 15.3831 86.4892 16.2028 86.4876H89.5857C90.2041 86.4902 90.8077 86.6769 91.3194 87.0241C91.831 87.3713 92.2275 87.863 92.4582 88.4366C92.5032 88.5507 92.542 88.6671 92.5745 88.7854C92.6449 89.0457 92.6807 89.3142 92.6808 89.5838L92.6801 182.386Z" fill="#A6E5B8"/>
<path d="M77.946 107.514H55.8426C55.3736 107.514 54.9238 107.328 54.5922 106.997C54.2605 106.665 54.0742 106.215 54.0742 105.747C54.0742 105.278 54.2605 104.828 54.5922 104.497C54.9238 104.165 55.3736 103.979 55.8426 103.979H77.9453C78.4143 103.979 78.8641 104.165 79.1957 104.497C79.5274 104.828 79.7137 105.278 79.7137 105.747C79.7137 106.215 79.5274 106.665 79.1957 106.997C78.8641 107.328 78.4143 107.514 77.9453 107.514H77.946Z" fill="#0A59F8"/>
<path d="M77.946 116.795H55.8426C55.3736 116.795 54.9238 116.609 54.5922 116.278C54.2605 115.946 54.0742 115.496 54.0742 115.028C54.0742 114.559 54.2605 114.109 54.5922 113.778C54.9238 113.446 55.3736 113.26 55.8426 113.26H77.9453C78.4143 113.26 78.8641 113.446 79.1957 113.778C79.5274 114.109 79.7137 114.559 79.7137 115.028C79.7137 115.496 79.5274 115.946 79.1957 116.278C78.8641 116.609 78.4143 116.795 77.9453 116.795H77.946Z" fill="#0A59F8"/>
<path d="M44.5008 122.08H28.3481C27.8207 122.079 27.315 121.87 26.9421 121.497C26.5692 121.124 26.3594 120.618 26.3589 120.091V101.035C26.3594 100.508 26.5692 100.002 26.9421 99.6294C27.315 99.2566 27.8207 99.0469 28.3481 99.0464H44.5008C45.0281 99.0471 45.5337 99.2568 45.9065 99.6296C46.2794 100.002 46.4892 100.508 46.4899 101.035V120.091C46.4894 120.618 46.2797 121.124 45.9067 121.497C45.5338 121.87 45.0282 122.079 44.5008 122.08Z" fill="#0A59F8"/>
<path d="M77.7917 135.799H27.8391C27.3702 135.799 26.9204 135.612 26.5887 135.281C26.2571 134.949 26.0708 134.5 26.0708 134.031C26.0708 133.562 26.2571 133.112 26.5887 132.781C26.9204 132.449 27.3702 132.263 27.8391 132.263H77.7917C78.2607 132.263 78.7104 132.449 79.0421 132.781C79.3737 133.112 79.56 133.562 79.56 134.031C79.56 134.5 79.3737 134.949 79.0421 135.281C78.7104 135.612 78.2607 135.799 77.7917 135.799Z" fill="#0A59F8"/>
<path d="M77.7917 145.083H27.8391C27.3702 145.083 26.9204 144.896 26.5887 144.565C26.2571 144.233 26.0708 143.784 26.0708 143.315C26.0708 142.846 26.2571 142.396 26.5887 142.065C26.9204 141.733 27.3702 141.547 27.8391 141.547H77.7917C78.2607 141.547 78.7104 141.733 79.0421 142.065C79.3737 142.396 79.56 142.846 79.56 143.315C79.56 143.784 79.3737 144.233 79.0421 144.565C78.7104 144.896 78.2607 145.083 77.7917 145.083Z" fill="#0A59F8"/>
<path d="M77.7917 154.36H27.8391C27.3702 154.36 26.9204 154.174 26.5887 153.842C26.2571 153.511 26.0708 153.061 26.0708 152.592C26.0708 152.123 26.2571 151.674 26.5887 151.342C26.9204 151.011 27.3702 150.824 27.8391 150.824H77.7917C78.2607 150.824 78.7104 151.011 79.0421 151.342C79.3737 151.674 79.56 152.123 79.56 152.592C79.56 153.061 79.3737 153.511 79.0421 153.842C78.7104 154.174 78.2607 154.36 77.7917 154.36Z" fill="#0A59F8"/>
<path d="M77.7917 163.643H27.8391C27.3702 163.643 26.9204 163.457 26.5887 163.126C26.2571 162.794 26.0708 162.344 26.0708 161.876C26.0708 161.407 26.2571 160.957 26.5887 160.625C26.9204 160.294 27.3702 160.108 27.8391 160.108H77.7917C78.2607 160.108 78.7104 160.294 79.0421 160.625C79.3737 160.957 79.56 161.407 79.56 161.876C79.56 162.344 79.3737 162.794 79.0421 163.126C78.7104 163.457 78.2607 163.643 77.7917 163.643Z" fill="#0A59F8"/>
<path d="M77.7917 172.922H27.8391C27.3702 172.922 26.9204 172.736 26.5887 172.404C26.2571 172.073 26.0708 171.623 26.0708 171.154C26.0708 170.685 26.2571 170.236 26.5887 169.904C26.9204 169.572 27.3702 169.386 27.8391 169.386H77.7917C78.2607 169.386 78.7104 169.572 79.0421 169.904C79.3737 170.236 79.56 170.685 79.56 171.154C79.56 171.623 79.3737 172.073 79.0421 172.404C78.7104 172.736 78.2607 172.922 77.7917 172.922Z" fill="#0A59F8"/>
<path d="M0.532073 186.75H103.677C103.818 186.75 103.952 186.694 104.051 186.595C104.151 186.496 104.206 186.362 104.206 186.221C104.206 186.081 104.151 185.946 104.051 185.847C103.952 185.748 103.818 185.692 103.677 185.692H0.532073C0.462596 185.692 0.393721 185.705 0.329382 185.732C0.265042 185.758 0.206501 185.796 0.157094 185.845C0.107688 185.894 0.0683914 185.952 0.0414392 186.016C0.014487 186.08 0.000403148 186.149 8.53404e-06 186.218C-0.00038608 186.288 0.0129082 186.357 0.0391312 186.421C0.0653542 186.485 0.103999 186.544 0.152847 186.593C0.201696 186.643 0.259795 186.682 0.323832 186.709C0.387869 186.736 0.456585 186.75 0.526062 186.75H0.532073Z" fill="#0A59F8"/>
<path d="M334.305 68.3043C342.422 68.3043 349.002 61.7262 349.002 53.6117C349.002 45.4973 342.422 38.9192 334.305 38.9192C326.188 38.9192 319.608 45.4973 319.608 53.6117C319.608 61.7262 326.188 68.3043 334.305 68.3043Z" fill="#A6E5B8"/>
<path d="M332.848 59.2162C332.518 59.2168 332.196 59.1099 331.932 58.9118L331.915 58.8997L328.461 56.2558C328.148 56.0052 327.945 55.6416 327.896 55.2431C327.847 54.8446 327.957 54.4429 328.201 54.1242C328.445 53.8055 328.805 53.5952 329.202 53.5383C329.6 53.4815 330.004 53.5827 330.328 53.8203L332.565 55.5354L337.851 48.6427C338.099 48.3199 338.465 48.1087 338.868 48.0554C339.271 48.0022 339.679 48.1113 340.002 48.3588L340.003 48.3591L339.97 48.4035L340.003 48.3598C340.326 48.6076 340.537 48.9733 340.59 49.3764C340.643 49.7796 340.534 50.1874 340.287 50.5104L334.069 58.6181C333.925 58.805 333.74 58.9562 333.528 59.06C333.316 59.1639 333.084 59.2176 332.848 59.2169L332.848 59.2162Z" fill="white"/>
<path d="M375.604 88.0616C375.299 87.3374 374.788 86.7185 374.135 86.2815C373.482 85.8444 372.715 85.6084 371.929 85.6025H298.546C297.491 85.6031 296.479 86.0222 295.734 86.7678C294.988 87.5135 294.568 88.5246 294.568 89.5791V182.386C294.568 183.44 294.988 184.451 295.734 185.197C296.479 185.943 297.491 186.362 298.546 186.362H371.929C372.983 186.361 373.994 185.941 374.74 185.196C375.485 184.451 375.905 183.44 375.906 182.386V89.5791C375.908 89.0582 375.805 88.5422 375.604 88.0616ZM375.023 182.386C375.021 183.206 374.695 183.991 374.115 184.571C373.536 185.15 372.75 185.476 371.931 185.478H298.546C298.139 185.478 297.737 185.398 297.362 185.243C296.987 185.087 296.646 184.86 296.359 184.572C296.072 184.285 295.844 183.945 295.689 183.569C295.533 183.194 295.453 182.792 295.453 182.386V89.5791C295.455 88.7597 295.781 87.9743 296.361 87.3949C296.94 86.8155 297.726 86.4892 298.546 86.4876H371.929C372.547 86.4902 373.15 86.6769 373.662 87.0241C374.174 87.3713 374.57 87.863 374.801 88.4366C374.846 88.5507 374.885 88.6671 374.917 88.7854C374.988 89.0457 375.023 89.3142 375.024 89.5838L375.023 182.386Z" fill="#0A59F8"/>
<path d="M360.289 107.514H338.185C337.716 107.514 337.267 107.328 336.935 106.997C336.603 106.665 336.417 106.215 336.417 105.747C336.417 105.278 336.603 104.828 336.935 104.497C337.267 104.165 337.716 103.979 338.185 103.979H360.288C360.757 103.979 361.207 104.165 361.538 104.497C361.87 104.828 362.056 105.278 362.056 105.747C362.056 106.215 361.87 106.665 361.538 106.997C361.207 107.328 360.757 107.514 360.288 107.514H360.289Z" fill="#0A59F8"/>
<path d="M360.289 116.795H338.185C337.716 116.795 337.267 116.609 336.935 116.278C336.603 115.946 336.417 115.496 336.417 115.028C336.417 114.559 336.603 114.109 336.935 113.778C337.267 113.446 337.716 113.26 338.185 113.26H360.288C360.757 113.26 361.207 113.446 361.538 113.778C361.87 114.109 362.056 114.559 362.056 115.028C362.056 115.496 361.87 115.946 361.538 116.278C361.207 116.609 360.757 116.795 360.288 116.795H360.289Z" fill="#0A59F8"/>
<path d="M326.844 122.08H310.691C310.164 122.079 309.658 121.87 309.285 121.497C308.912 121.124 308.703 120.618 308.702 120.091V101.035C308.703 100.508 308.912 100.002 309.285 99.6294C309.658 99.2566 310.164 99.0469 310.691 99.0464H326.844C327.371 99.0471 327.877 99.2568 328.25 99.6296C328.623 100.002 328.832 100.508 328.833 101.035V120.091C328.833 120.618 328.623 121.124 328.25 121.497C327.877 121.87 327.371 122.079 326.844 122.08Z" fill="#A6E5B8"/>
<path d="M360.135 135.799H310.182C309.713 135.799 309.264 135.612 308.932 135.281C308.6 134.949 308.414 134.5 308.414 134.031C308.414 133.562 308.6 133.112 308.932 132.781C309.264 132.449 309.713 132.263 310.182 132.263H360.135C360.604 132.263 361.054 132.449 361.385 132.781C361.717 133.112 361.903 133.562 361.903 134.031C361.903 134.5 361.717 134.949 361.385 135.281C361.054 135.612 360.604 135.799 360.135 135.799Z" fill="#0A59F8"/>
<path d="M360.135 145.083H310.182C309.713 145.083 309.264 144.896 308.932 144.565C308.6 144.233 308.414 143.784 308.414 143.315C308.414 142.846 308.6 142.396 308.932 142.065C309.264 141.733 309.713 141.547 310.182 141.547H360.135C360.604 141.547 361.054 141.733 361.385 142.065C361.717 142.396 361.903 142.846 361.903 143.315C361.903 143.784 361.717 144.233 361.385 144.565C361.054 144.896 360.604 145.083 360.135 145.083Z" fill="#0A59F8"/>
<path d="M360.135 154.36H310.182C309.713 154.36 309.264 154.174 308.932 153.842C308.6 153.511 308.414 153.061 308.414 152.592C308.414 152.123 308.6 151.674 308.932 151.342C309.264 151.011 309.713 150.824 310.182 150.824H360.135C360.604 150.824 361.054 151.011 361.385 151.342C361.717 151.674 361.903 152.123 361.903 152.592C361.903 153.061 361.717 153.511 361.385 153.842C361.054 154.174 360.604 154.36 360.135 154.36Z" fill="#0A59F8"/>
<path d="M360.135 163.643H310.182C309.713 163.643 309.264 163.457 308.932 163.126C308.6 162.794 308.414 162.344 308.414 161.876C308.414 161.407 308.6 160.957 308.932 160.625C309.264 160.294 309.713 160.108 310.182 160.108H360.135C360.604 160.108 361.054 160.294 361.385 160.625C361.717 160.957 361.903 161.407 361.903 161.876C361.903 162.344 361.717 162.794 361.385 163.126C361.054 163.457 360.604 163.643 360.135 163.643Z" fill="#0A59F8"/>
<path d="M360.135 172.922H310.182C309.713 172.922 309.264 172.736 308.932 172.404C308.6 172.073 308.414 171.623 308.414 171.154C308.414 170.685 308.6 170.236 308.932 169.904C309.264 169.572 309.713 169.386 310.182 169.386H360.135C360.604 169.386 361.054 169.572 361.385 169.904C361.717 170.236 361.903 170.685 361.903 171.154C361.903 171.623 361.717 172.073 361.385 172.404C361.054 172.736 360.604 172.922 360.135 172.922Z" fill="#0A59F8"/>
<path d="M282.875 186.75H386.02C386.16 186.75 386.295 186.694 386.394 186.595C386.493 186.496 386.549 186.362 386.549 186.221C386.549 186.081 386.493 185.946 386.394 185.847C386.295 185.748 386.16 185.692 386.02 185.692H282.875C282.805 185.692 282.736 185.705 282.672 185.732C282.608 185.758 282.549 185.796 282.5 185.845C282.45 185.894 282.411 185.952 282.384 186.016C282.357 186.08 282.343 186.149 282.343 186.218C282.342 186.288 282.356 186.357 282.382 186.421C282.408 186.485 282.447 186.544 282.496 186.593C282.544 186.643 282.603 186.682 282.667 186.709C282.731 186.736 282.799 186.75 282.869 186.75H282.875Z" fill="#0A59F8"/>
<path d="M127.057 256.766H258.145C258.324 256.766 258.495 256.695 258.621 256.569C258.747 256.443 258.818 256.272 258.818 256.094C258.818 255.916 258.747 255.745 258.621 255.619C258.495 255.493 258.324 255.422 258.145 255.422H127.057C126.879 255.422 126.708 255.493 126.582 255.619C126.456 255.745 126.385 255.916 126.385 256.094C126.385 256.272 126.456 256.443 126.582 256.569C126.708 256.695 126.879 256.766 127.057 256.766Z" fill="#3F3D56"/>
</g>
<defs>
<clipPath id="clip0_1366_4869">
<rect width="562" height="294" fill="white"/>
</clipPath>
</defs>
</svg>
