<svg width="44" height="44" viewBox="0 0 44 44" fill="none" xmlns="http://www.w3.org/2000/svg">
<path d="M42.0184 1.98162C39.9096 -0.127214 36.4905 -0.127214 34.3816 1.98162L13.9 22.4632V30.1H21.5368L42.0184 9.61837C44.1272 7.50954 44.1272 4.09045 42.0184 1.98162Z" fill="#A6E5B8"/>
<path fill-rule="evenodd" clip-rule="evenodd" d="M0.400024 11.2C0.400024 8.21766 2.81769 5.79999 5.80002 5.79999H16.6C18.0912 5.79999 19.3 7.00883 19.3 8.49999C19.3 9.99116 18.0912 11.2 16.6 11.2H5.80002V38.2H32.8V27.4C32.8 25.9088 34.0089 24.7 35.5 24.7C36.9912 24.7 38.2 25.9088 38.2 27.4V38.2C38.2 41.1823 35.7824 43.6 32.8 43.6H5.80002C2.81769 43.6 0.400024 41.1823 0.400024 38.2V11.2Z" fill="#A6E5B8"/>
</svg>
