<svg width="44" height="44" viewBox="0 0 44 44" fill="none" xmlns="http://www.w3.org/2000/svg">
<path d="M0.400024 3.09999C0.400024 1.60882 1.60886 0.399994 3.10002 0.399994H8.91278C10.2326 0.399994 11.3591 1.35421 11.576 2.65612L13.5722 14.633C13.7671 15.8022 13.1766 16.9617 12.1164 17.4918L7.93643 19.5818C10.9504 27.0715 16.9286 33.0496 24.4182 36.0636L26.5082 31.8836C27.0383 30.8234 28.1979 30.233 29.367 30.4278L41.3439 32.424C42.6458 32.641 43.6 33.7674 43.6 35.0872V40.9C43.6 42.3912 42.3912 43.6 40.9 43.6H35.5C16.1148 43.6 0.400024 27.8852 0.400024 8.49999V3.09999Z" fill="#A6E5B8"/>
</svg>
