<svg width="40" height="40" viewBox="0 0 40 40" fill="none" xmlns="http://www.w3.org/2000/svg">
<path d="M5.19746 10.9719C10.8163 10.7068 15.951 8.58606 20 5.21021C24.049 8.58606 29.1837 10.7068 34.8025 10.9719C34.9328 11.9624 35 12.9731 35 14.0001C35 23.8879 28.7599 32.3208 20 35.5708C11.2401 32.3208 5 23.8879 5 14.0001C5 12.9731 5.06724 11.9624 5.19746 10.9719ZM28.1213 18.1213C29.2929 16.9497 29.2929 15.0503 28.1213 13.8787C26.9497 12.7071 25.0502 12.7071 23.8787 13.8787L18 19.7574L16.1213 17.8787C14.9497 16.7071 13.0503 16.7071 11.8787 17.8787C10.7071 19.0503 10.7071 20.9497 11.8787 22.1213L15.8787 26.1213C17.0503 27.2929 18.9497 27.2929 20.1213 26.1213L28.1213 18.1213Z" fill="#A6E5B8" stroke="#0A59F8" stroke-width="2"/>
</svg>
