<svg width="117" height="24" viewBox="0 0 117 24" fill="none" xmlns="http://www.w3.org/2000/svg">
<path d="M10.8586 4.71248C11.2178 3.60691 12.7819 3.60691 13.1412 4.71248L14.4246 8.66264C14.5853 9.15706 15.046 9.49182 15.5659 9.49182H19.7193C20.8818 9.49182 21.3651 10.9794 20.4247 11.6626L17.0645 14.104C16.6439 14.4095 16.4679 14.9512 16.6286 15.4456L17.912 19.3958C18.2713 20.5013 17.0059 21.4207 16.0654 20.7374L12.7052 18.2961C12.2846 17.9905 11.7151 17.9905 11.2945 18.2961L7.93434 20.7374C6.99388 21.4207 5.72851 20.5013 6.08773 19.3958L7.37121 15.4456C7.53186 14.9512 7.35587 14.4095 6.93529 14.104L3.57508 11.6626C2.63463 10.9794 3.11796 9.49182 4.28043 9.49182H8.43387C8.95374 9.49182 9.41448 9.15706 9.57513 8.66264L10.8586 4.71248Z" fill="#FFD233"/>
<path d="M72.8586 4.71248C73.2178 3.60691 74.7819 3.60691 75.1412 4.71248L76.4246 8.66264C76.5853 9.15706 77.046 9.49182 77.5659 9.49182H81.7193C82.8818 9.49182 83.3651 10.9794 82.4247 11.6626L79.0645 14.104C78.6439 14.4095 78.4679 14.9512 78.6286 15.4456L79.912 19.3958C80.2713 20.5013 79.0059 21.4207 78.0654 20.7374L74.7052 18.2961C74.2846 17.9905 73.7151 17.9905 73.2945 18.2961L69.9343 20.7374C68.9939 21.4207 67.7285 20.5013 68.0877 19.3958L69.3712 15.4456C69.5319 14.9512 69.3559 14.4095 68.9353 14.104L65.5751 11.6626C64.6346 10.9794 65.118 9.49182 66.2804 9.49182H70.4339C70.9537 9.49182 71.4145 9.15706 71.5751 8.66264L72.8586 4.71248Z" fill="#FFD233"/>
<path d="M103.859 4.71248C104.218 3.60691 105.782 3.60691 106.141 4.71248L107.425 8.66264C107.585 9.15706 108.046 9.49182 108.566 9.49182H112.719C113.882 9.49182 114.365 10.9794 113.425 11.6626L110.064 14.104C109.644 14.4095 109.468 14.9512 109.629 15.4456L110.912 19.3958C111.271 20.5013 110.006 21.4207 109.065 20.7374L105.705 18.2961C105.285 17.9905 104.715 17.9905 104.295 18.2961L100.934 20.7374C99.9939 21.4207 98.7285 20.5013 99.0877 19.3958L100.371 15.4456C100.532 14.9512 100.356 14.4095 99.9353 14.104L96.5751 11.6626C95.6346 10.9794 96.118 9.49182 97.2804 9.49182H101.434C101.954 9.49182 102.414 9.15706 102.575 8.66264L103.859 4.71248Z" fill="#787D77"/>
<path d="M41.8586 4.71248C42.2178 3.60691 43.7819 3.60691 44.1412 4.71248L45.4246 8.66264C45.5853 9.15706 46.046 9.49182 46.5659 9.49182H50.7193C51.8818 9.49182 52.3651 10.9794 51.4247 11.6626L48.0645 14.104C47.6439 14.4095 47.4679 14.9512 47.6286 15.4456L48.912 19.3958C49.2713 20.5013 48.0059 21.4207 47.0654 20.7374L43.7052 18.2961C43.2846 17.9905 42.7151 17.9905 42.2945 18.2961L38.9343 20.7374C37.9939 21.4207 36.7285 20.5013 37.0877 19.3958L38.3712 15.4456C38.5319 14.9512 38.3559 14.4095 37.9353 14.104L34.5751 11.6626C33.6346 10.9794 34.118 9.49182 35.2804 9.49182H39.4339C39.9537 9.49182 40.4145 9.15706 40.5751 8.66264L41.8586 4.71248Z" fill="#FFD233"/>
</svg>
