<svg width="117" height="24" viewBox="0 0 117 24" fill="none" xmlns="http://www.w3.org/2000/svg">
<path d="M10.8587 4.71245C11.218 3.60688 12.7821 3.60688 13.1413 4.71245L14.4248 8.66261C14.5854 9.15703 15.0462 9.49179 15.566 9.49179H19.7195C20.8819 9.49179 21.3653 10.9793 20.4248 11.6626L17.0646 14.1039C16.644 14.4095 16.468 14.9512 16.6287 15.4456L17.9122 19.3957C18.2714 20.5013 17.006 21.4207 16.0656 20.7374L12.7053 18.296C12.2848 17.9905 11.7152 17.9905 11.2947 18.296L7.93446 20.7374C6.994 21.4207 5.72863 20.5013 6.08785 19.3957L7.37133 15.4456C7.53198 14.9512 7.35599 14.4095 6.93541 14.1039L3.5752 11.6626C2.63475 10.9793 3.11808 9.49179 4.28055 9.49179H8.43399C8.95386 9.49179 9.41461 9.15703 9.57525 8.66261L10.8587 4.71245Z" fill="#0A59F8"/>
<path d="M72.8587 4.71245C73.218 3.60688 74.7821 3.60688 75.1413 4.71245L76.4248 8.66261C76.5854 9.15703 77.0462 9.49179 77.566 9.49179H81.7195C82.8819 9.49179 83.3653 10.9793 82.4248 11.6626L79.0646 14.1039C78.644 14.4095 78.468 14.9512 78.6287 15.4456L79.9122 19.3957C80.2714 20.5013 79.006 21.4207 78.0656 20.7374L74.7053 18.296C74.2848 17.9905 73.7152 17.9905 73.2947 18.296L69.9345 20.7374C68.994 21.4207 67.7286 20.5013 68.0878 19.3957L69.3713 15.4456C69.532 14.9512 69.356 14.4095 68.9354 14.1039L65.5752 11.6626C64.6347 10.9793 65.1181 9.49179 66.2805 9.49179H70.434C70.9539 9.49179 71.4146 9.15703 71.5753 8.66261L72.8587 4.71245Z" fill="#0A59F8"/>
<path d="M103.859 4.71245C104.218 3.60688 105.782 3.60688 106.141 4.71245L107.425 8.66261C107.585 9.15703 108.046 9.49179 108.566 9.49179H112.719C113.882 9.49179 114.365 10.9793 113.425 11.6626L110.065 14.1039C109.644 14.4095 109.468 14.9512 109.629 15.4456L110.912 19.3957C111.271 20.5013 110.006 21.4207 109.066 20.7374L105.705 18.296C105.285 17.9905 104.715 17.9905 104.295 18.296L100.934 20.7374C99.994 21.4207 98.7286 20.5013 99.0878 19.3957L100.371 15.4456C100.532 14.9512 100.356 14.4095 99.9354 14.1039L96.5752 11.6626C95.6347 10.9793 96.1181 9.49179 97.2805 9.49179H101.434C101.954 9.49179 102.415 9.15703 102.575 8.66261L103.859 4.71245Z" fill="#0A59F8"/>
<path d="M41.8587 4.71245C42.218 3.60688 43.7821 3.60688 44.1413 4.71245L45.4248 8.66261C45.5854 9.15703 46.0462 9.49179 46.566 9.49179H50.7195C51.8819 9.49179 52.3653 10.9793 51.4248 11.6626L48.0646 14.1039C47.644 14.4095 47.468 14.9512 47.6287 15.4456L48.9122 19.3957C49.2714 20.5013 48.006 21.4207 47.0656 20.7374L43.7053 18.296C43.2848 17.9905 42.7152 17.9905 42.2947 18.296L38.9345 20.7374C37.994 21.4207 36.7286 20.5013 37.0878 19.3957L38.3713 15.4456C38.532 14.9512 38.356 14.4095 37.9354 14.1039L34.5752 11.6626C33.6347 10.9793 34.1181 9.49179 35.2805 9.49179H39.434C39.9539 9.49179 40.4146 9.15703 40.5753 8.66261L41.8587 4.71245Z" fill="#0A59F8"/>
</svg>
