<svg width="224" height="37" viewBox="0 0 224 37" fill="none" xmlns="http://www.w3.org/2000/svg">
<path d="M18.3047 1.875V36H11.2969V1.875H18.3047ZM28.8047 1.875V7.38281H0.960938V1.875H28.8047ZM41.8594 36.4688C39.8906 36.4688 38.125 36.1562 36.5625 35.5312C35 34.8906 33.6719 34.0078 32.5781 32.8828C31.5 31.7578 30.6719 30.4531 30.0938 28.9688C29.5156 27.4688 29.2266 25.875 29.2266 24.1875V23.25C29.2266 21.3281 29.5 19.5703 30.0469 17.9766C30.5938 16.3828 31.375 15 32.3906 13.8281C33.4219 12.6562 34.6719 11.7578 36.1406 11.1328C37.6094 10.4922 39.2656 10.1719 41.1094 10.1719C42.9062 10.1719 44.5 10.4688 45.8906 11.0625C47.2812 11.6562 48.4453 12.5 49.3828 13.5938C50.3359 14.6875 51.0547 16 51.5391 17.5312C52.0234 19.0469 52.2656 20.7344 52.2656 22.5938V25.4062H32.1094V20.9062H45.6328V20.3906C45.6328 19.4531 45.4609 18.6172 45.1172 17.8828C44.7891 17.1328 44.2891 16.5391 43.6172 16.1016C42.9453 15.6641 42.0859 15.4453 41.0391 15.4453C40.1484 15.4453 39.3828 15.6406 38.7422 16.0312C38.1016 16.4219 37.5781 16.9688 37.1719 17.6719C36.7812 18.375 36.4844 19.2031 36.2812 20.1562C36.0938 21.0938 36 22.125 36 23.25V24.1875C36 25.2031 36.1406 26.1406 36.4219 27C36.7188 27.8594 37.1328 28.6016 37.6641 29.2266C38.2109 29.8516 38.8672 30.3359 39.6328 30.6797C40.4141 31.0234 41.2969 31.1953 42.2812 31.1953C43.5 31.1953 44.6328 30.9609 45.6797 30.4922C46.7422 30.0078 47.6562 29.2812 48.4219 28.3125L51.7031 31.875C51.1719 32.6406 50.4453 33.375 49.5234 34.0781C48.6172 34.7812 47.5234 35.3594 46.2422 35.8125C44.9609 36.25 43.5 36.4688 41.8594 36.4688ZM62.8594 16.1719V36H56.1094V10.6406H62.4609L62.8594 16.1719ZM70.5 10.4766L70.3828 16.7344C70.0547 16.6875 69.6562 16.6484 69.1875 16.6172C68.7344 16.5703 68.3203 16.5469 67.9453 16.5469C66.9922 16.5469 66.1641 16.6719 65.4609 16.9219C64.7734 17.1562 64.1953 17.5078 63.7266 17.9766C63.2734 18.4453 62.9297 19.0156 62.6953 19.6875C62.4766 20.3594 62.3516 21.125 62.3203 21.9844L60.9609 21.5625C60.9609 19.9219 61.125 18.4141 61.4531 17.0391C61.7812 15.6484 62.2578 14.4375 62.8828 13.4062C63.5234 12.375 64.3047 11.5781 65.2266 11.0156C66.1484 10.4531 67.2031 10.1719 68.3906 10.1719C68.7656 10.1719 69.1484 10.2031 69.5391 10.2656C69.9297 10.3125 70.25 10.3828 70.5 10.4766ZM80.4375 15.8906V36H73.6641V10.6406H80.0156L80.4375 15.8906ZM79.5 22.4297H77.625C77.625 20.6641 77.8359 19.0391 78.2578 17.5547C78.6953 16.0547 79.3281 14.7578 80.1562 13.6641C81 12.5547 82.0391 11.6953 83.2734 11.0859C84.5078 10.4766 85.9375 10.1719 87.5625 10.1719C88.6875 10.1719 89.7188 10.3437 90.6562 10.6875C91.5938 11.0156 92.3984 11.5391 93.0703 12.2578C93.7578 12.9609 94.2891 13.8828 94.6641 15.0234C95.0391 16.1484 95.2266 17.5 95.2266 19.0781V36H88.4766V19.8281C88.4766 18.6719 88.3203 17.7812 88.0078 17.1562C87.6953 16.5312 87.25 16.0938 86.6719 15.8438C86.1094 15.5938 85.4297 15.4688 84.6328 15.4688C83.7578 15.4688 82.9922 15.6484 82.3359 16.0078C81.6953 16.3672 81.1641 16.8672 80.7422 17.5078C80.3203 18.1328 80.0078 18.8672 79.8047 19.7109C79.6016 20.5547 79.5 21.4609 79.5 22.4297ZM94.5938 21.6562L92.1797 21.9609C92.1797 20.3047 92.3828 18.7656 92.7891 17.3438C93.2109 15.9219 93.8281 14.6719 94.6406 13.5938C95.4688 12.5156 96.4922 11.6797 97.7109 11.0859C98.9297 10.4766 100.336 10.1719 101.93 10.1719C103.148 10.1719 104.258 10.3516 105.258 10.7109C106.258 11.0547 107.109 11.6094 107.812 12.375C108.531 13.125 109.078 14.1094 109.453 15.3281C109.844 16.5469 110.039 18.0391 110.039 19.8047V36H103.266V19.8047C103.266 18.6328 103.109 17.7422 102.797 17.1328C102.5 16.5078 102.062 16.0781 101.484 15.8438C100.922 15.5938 100.25 15.4688 99.4688 15.4688C98.6562 15.4688 97.9453 15.6328 97.3359 15.9609C96.7266 16.2734 96.2188 16.7109 95.8125 17.2734C95.4062 17.8359 95.1016 18.4922 94.8984 19.2422C94.6953 19.9766 94.5938 20.7812 94.5938 21.6562ZM128.977 28.9922C128.977 28.5078 128.836 28.0703 128.555 27.6797C128.273 27.2891 127.75 26.9297 126.984 26.6016C126.234 26.2578 125.148 25.9453 123.727 25.6641C122.445 25.3828 121.25 25.0312 120.141 24.6094C119.047 24.1719 118.094 23.6484 117.281 23.0391C116.484 22.4297 115.859 21.7109 115.406 20.8828C114.953 20.0391 114.727 19.0781 114.727 18C114.727 16.9375 114.953 15.9375 115.406 15C115.875 14.0625 116.539 13.2344 117.398 12.5156C118.273 11.7813 119.336 11.2109 120.586 10.8047C121.852 10.3828 123.273 10.1719 124.852 10.1719C127.055 10.1719 128.945 10.5234 130.523 11.2266C132.117 11.9297 133.336 12.8984 134.18 14.1328C135.039 15.3516 135.469 16.7422 135.469 18.3047H128.719C128.719 17.6484 128.578 17.0625 128.297 16.5469C128.031 16.0156 127.609 15.6016 127.031 15.3047C126.469 14.9922 125.734 14.8359 124.828 14.8359C124.078 14.8359 123.43 14.9688 122.883 15.2344C122.336 15.4844 121.914 15.8281 121.617 16.2656C121.336 16.6875 121.195 17.1562 121.195 17.6719C121.195 18.0625 121.273 18.4141 121.43 18.7266C121.602 19.0234 121.875 19.2969 122.25 19.5469C122.625 19.7969 123.109 20.0312 123.703 20.25C124.312 20.4531 125.062 20.6406 125.953 20.8125C127.781 21.1875 129.414 21.6797 130.852 22.2891C132.289 22.8828 133.43 23.6953 134.273 24.7266C135.117 25.7422 135.539 27.0781 135.539 28.7344C135.539 29.8594 135.289 30.8906 134.789 31.8281C134.289 32.7656 133.57 33.5859 132.633 34.2891C131.695 34.9766 130.57 35.5156 129.258 35.9062C127.961 36.2812 126.5 36.4688 124.875 36.4688C122.516 36.4688 120.516 36.0469 118.875 35.2031C117.25 34.3594 116.016 33.2891 115.172 31.9922C114.344 30.6797 113.93 29.3359 113.93 27.9609H120.328C120.359 28.8828 120.594 29.625 121.031 30.1875C121.484 30.75 122.055 31.1562 122.742 31.4062C123.445 31.6562 124.203 31.7812 125.016 31.7812C125.891 31.7812 126.617 31.6641 127.195 31.4297C127.773 31.1797 128.211 30.8516 128.508 30.4453C128.82 30.0234 128.977 29.5391 128.977 28.9922Z" fill="white"/>
<path d="M163.102 15.7734V21.2578H145.289V15.7734H163.102ZM147.375 1.875V36H140.344V1.875H147.375ZM168.117 1.875V36H161.109V1.875H168.117ZM188.812 29.9297V10.6406H195.562V36H189.211L188.812 29.9297ZM189.562 24.7266L191.555 24.6797C191.555 26.3672 191.359 27.9375 190.969 29.3906C190.578 30.8281 189.992 32.0781 189.211 33.1406C188.43 34.1875 187.445 35.0078 186.258 35.6016C185.07 36.1797 183.672 36.4688 182.062 36.4688C180.828 36.4688 179.688 36.2969 178.641 35.9531C177.609 35.5938 176.719 35.0391 175.969 34.2891C175.234 33.5234 174.656 32.5469 174.234 31.3594C173.828 30.1562 173.625 28.7109 173.625 27.0234V10.6406H180.375V27.0703C180.375 27.8203 180.461 28.4531 180.633 28.9688C180.82 29.4844 181.078 29.9062 181.406 30.2344C181.734 30.5625 182.117 30.7969 182.555 30.9375C183.008 31.0781 183.508 31.1484 184.055 31.1484C185.445 31.1484 186.539 30.8672 187.336 30.3047C188.148 29.7422 188.719 28.9766 189.047 28.0078C189.391 27.0234 189.562 25.9297 189.562 24.7266ZM200.719 0H207.469V30.1875L206.789 36H200.719V0ZM223.523 23.0625V23.5547C223.523 25.4453 223.32 27.1797 222.914 28.7578C222.523 30.3359 221.914 31.7031 221.086 32.8594C220.258 34 219.227 34.8906 217.992 35.5312C216.773 36.1562 215.336 36.4688 213.68 36.4688C212.133 36.4688 210.789 36.1562 209.648 35.5312C208.523 34.9062 207.578 34.0234 206.812 32.8828C206.047 31.7422 205.43 30.4062 204.961 28.875C204.492 27.3438 204.141 25.6719 203.906 23.8594V22.7812C204.141 20.9688 204.492 19.2969 204.961 17.7656C205.43 16.2344 206.047 14.8984 206.812 13.7578C207.578 12.6172 208.523 11.7344 209.648 11.1094C210.773 10.4844 212.102 10.1719 213.633 10.1719C215.305 10.1719 216.758 10.4922 217.992 11.1328C219.242 11.7578 220.273 12.6484 221.086 13.8047C221.914 14.9453 222.523 16.3047 222.914 17.8828C223.32 19.4453 223.523 21.1719 223.523 23.0625ZM216.773 23.5547V23.0625C216.773 22.0312 216.695 21.0625 216.539 20.1562C216.398 19.2344 216.148 18.4297 215.789 17.7422C215.43 17.0391 214.938 16.4844 214.312 16.0781C213.703 15.6719 212.914 15.4688 211.945 15.4688C211.023 15.4688 210.242 15.625 209.602 15.9375C208.961 16.25 208.43 16.6875 208.008 17.25C207.602 17.8125 207.297 18.4844 207.094 19.2656C206.891 20.0312 206.766 20.875 206.719 21.7969V24.8672C206.766 26.1016 206.969 27.1953 207.328 28.1484C207.703 29.0859 208.266 29.8281 209.016 30.375C209.781 30.9062 210.773 31.1719 211.992 31.1719C212.945 31.1719 213.734 30.9844 214.359 30.6094C214.984 30.2344 215.469 29.7031 215.812 29.0156C216.172 28.3281 216.422 27.5234 216.562 26.6016C216.703 25.6641 216.773 24.6484 216.773 23.5547Z" fill="#15161C"/>
</svg>
