<svg width="34" height="30" viewBox="0 0 34 30" fill="none" xmlns="http://www.w3.org/2000/svg">
<path fill-rule="evenodd" clip-rule="evenodd" d="M0.199951 3.0001C0.199951 1.67461 1.27447 0.600098 2.59995 0.600098H31.4C32.7254 0.600098 33.7999 1.67461 33.7999 3.0001C33.7999 4.32558 32.7254 5.4001 31.4 5.4001H2.59995C1.27447 5.4001 0.199951 4.32558 0.199951 3.0001Z" fill="white"/>
<path fill-rule="evenodd" clip-rule="evenodd" d="M0.199951 15.0001C0.199951 13.6746 1.27447 12.6001 2.59995 12.6001H31.4C32.7254 12.6001 33.7999 13.6746 33.7999 15.0001C33.7999 16.3256 32.7254 17.4001 31.4 17.4001H2.59995C1.27447 17.4001 0.199951 16.3256 0.199951 15.0001Z" fill="white"/>
<path fill-rule="evenodd" clip-rule="evenodd" d="M0.199951 27.0001C0.199951 25.6746 1.27447 24.6001 2.59995 24.6001H31.4C32.7254 24.6001 33.7999 25.6746 33.7999 27.0001C33.7999 28.3256 32.7254 29.4001 31.4 29.4001H2.59995C1.27447 29.4001 0.199951 28.3256 0.199951 27.0001Z" fill="white"/>
</svg>
