<svg width="125" height="83" viewBox="0 0 125 83" fill="none" xmlns="http://www.w3.org/2000/svg">
<path d="M62.4804 49.8C69.3468 49.8 74.913 46.0839 74.913 41.5C74.913 36.916 69.3468 33.2 62.4804 33.2C55.6141 33.2 50.0478 36.916 50.0478 41.5C50.0478 46.0839 55.6141 49.8 62.4804 49.8Z" fill="#111827"/>
<path fill-rule="evenodd" clip-rule="evenodd" d="M3.16296 41.5001C11.0841 24.663 34.6458 12.45 62.4802 12.45C90.3145 12.45 113.876 24.6629 121.797 41.4998C113.876 58.3369 90.3145 70.55 62.4801 70.55C34.6458 70.55 11.0842 58.337 3.16296 41.5001ZM87.3457 41.5C87.3457 50.6679 76.2131 58.1 62.4804 58.1C48.7478 58.1 37.6152 50.6679 37.6152 41.5C37.6152 32.332 48.7478 24.9 62.4804 24.9C76.2131 24.9 87.3457 32.332 87.3457 41.5Z" fill="#111827"/>
</svg>
