<svg width="84" height="84" viewBox="0 0 84 84" fill="none" xmlns="http://www.w3.org/2000/svg">
<path fill-rule="evenodd" clip-rule="evenodd" d="M43.2302 65.9699C41.59 64.3297 41.59 61.6704 43.2302 60.0302L61.2604 42L43.2302 23.9699C41.59 22.3297 41.59 19.6704 43.2302 18.0302C44.8704 16.39 47.5297 16.39 49.1699 18.0302L70.1699 39.0302C71.8101 40.6704 71.8101 43.3297 70.1699 44.9699L49.1699 65.9699C47.5297 67.6101 44.8704 67.6101 43.2302 65.9699Z" fill="#111827"/>
<path fill-rule="evenodd" clip-rule="evenodd" d="M18.0302 65.9699C16.39 64.3297 16.39 61.6704 18.0302 60.0302L36.0604 42L18.0302 23.9699C16.39 22.3297 16.39 19.6704 18.0302 18.0302C19.6704 16.39 22.3297 16.39 23.9699 18.0302L44.9699 39.0302C46.6101 40.6704 46.6101 43.3297 44.9699 44.9699L23.9699 65.9699C22.3297 67.6101 19.6704 67.6101 18.0302 65.9699Z" fill="#111827"/>
</svg>
