<svg width="44" height="50" viewBox="0 0 44 50" fill="none" xmlns="http://www.w3.org/2000/svg">
<path fill-rule="evenodd" clip-rule="evenodd" d="M0.400024 23.65C0.400024 28.8691 4.63093 33.1 9.85002 33.1H19.3V40.0816L15.8092 36.5908C14.7548 35.5364 13.0453 35.5364 11.9908 36.5908C10.9364 37.6452 10.9364 39.3548 11.9908 40.4092L20.0908 48.5092C21.1453 49.5636 22.8548 49.5636 23.9092 48.5092L32.0092 40.4092C33.0636 39.3548 33.0636 37.6452 32.0092 36.5908C30.9548 35.5364 29.2453 35.5364 28.1908 36.5908L24.7 40.0816V33.1H31.45C38.1603 33.1 43.6 27.6603 43.6 20.95C43.6 14.2397 38.1603 8.8 31.45 8.8C30.8863 8.8 30.3315 8.83839 29.7881 8.91271C28.6289 4.19751 24.3729 0.699997 19.3 0.699997C13.3354 0.699997 8.50002 5.53532 8.50002 11.5C8.50002 12.451 8.62295 13.3733 8.85377 14.2519C4.10297 14.7497 0.400024 18.7674 0.400024 23.65ZM24.7 33.1H19.3V19.6C19.3 18.1088 20.5089 16.9 22 16.9C23.4912 16.9 24.7 18.1088 24.7 19.6V33.1Z" fill="#A6E5B8"/>
</svg>
