<svg width="40" height="40" viewBox="0 0 40 40" fill="none" xmlns="http://www.w3.org/2000/svg">
<path d="M28.3337 31.6667H33.3337V8.33337H28.3337V5.00003H35.0004C35.4424 5.00003 35.8663 5.17563 36.1789 5.48819C36.4914 5.80075 36.667 6.22467 36.667 6.6667V33.3334C36.667 33.7754 36.4914 34.1993 36.1789 34.5119C35.8663 34.8244 35.4424 35 35.0004 35H28.3337V31.6667ZM4.76536 4.79503L25.7154 1.80337C25.8336 1.78641 25.9541 1.79506 26.0687 1.82874C26.1833 1.86242 26.2893 1.92035 26.3796 1.99859C26.4698 2.07683 26.5422 2.17355 26.5918 2.28221C26.6414 2.39087 26.667 2.50892 26.667 2.62837V37.3717C26.667 37.491 26.6414 37.6089 26.5919 37.7174C26.5424 37.8259 26.4702 37.9226 26.3801 38.0008C26.29 38.079 26.1842 38.1369 26.0698 38.1707C25.9555 38.2045 25.8351 38.2134 25.717 38.1967L4.7637 35.205C4.3664 35.1484 4.00285 34.9504 3.73985 34.6473C3.47684 34.3442 3.33204 33.9563 3.33203 33.555V6.44503C3.33204 6.04372 3.47684 5.65589 3.73985 5.35277C4.00285 5.04966 4.3664 4.85162 4.7637 4.79503H4.76536ZM6.66703 7.8917V32.1084L23.3337 34.49V5.51003L6.66703 7.8917ZM18.3337 13.3334H21.667V26.6667H18.3337L15.0004 23.3334L11.667 26.6667H8.3337V13.3334H11.667L11.6837 21.6667L15.0004 18.3334L18.3337 21.6484V13.3334Z" fill="black"/>
</svg>
