<svg width="84" height="84" viewBox="0 0 84 84" fill="none" xmlns="http://www.w3.org/2000/svg">
<path d="M44.9698 9.63015C43.3296 7.98995 40.6703 7.98995 39.0301 9.63015L9.63005 39.0302C7.98985 40.6704 7.98985 43.3296 9.63005 44.9699C11.2703 46.6101 13.9295 46.6101 15.5698 44.9699L16.7999 43.7397V71.4C16.7999 73.7196 18.6803 75.6 20.9999 75.6H29.3999C31.7195 75.6 33.5999 73.7196 33.5999 71.4V63C33.5999 60.6804 35.4803 58.8 37.7999 58.8H46.1999C48.5195 58.8 50.3999 60.6804 50.3999 63V71.4C50.3999 73.7196 52.2803 75.6 54.5999 75.6H62.9999C65.3195 75.6 67.1999 73.7196 67.1999 71.4V43.7397L68.4301 44.9699C70.0703 46.6101 72.7296 46.6101 74.3698 44.9699C76.01 43.3296 76.01 40.6704 74.3698 39.0302L44.9698 9.63015Z" fill="#111827"/>
</svg>
