<svg width="44" height="44" viewBox="0 0 44 44" fill="none" xmlns="http://www.w3.org/2000/svg">
<path d="M24.7 3.09999C24.7 1.60883 23.4912 0.399994 22 0.399994C20.5089 0.399994 19.3 1.60883 19.3 3.09999V5.79999C19.3 7.29116 20.5089 8.49999 22 8.49999C23.4912 8.49999 24.7 7.29116 24.7 5.79999V3.09999Z" fill="#A6E5B8"/>
<path d="M37.2734 10.5447C38.3278 9.49031 38.3278 7.78076 37.2734 6.72635C36.219 5.67193 34.5095 5.67193 33.455 6.72635L31.5459 8.63553C30.4914 9.68995 30.4914 11.3995 31.5459 12.4539C32.6003 13.5083 34.3098 13.5083 35.3642 12.4539L37.2734 10.5447Z" fill="#A6E5B8"/>
<path d="M43.6 22C43.6 23.4912 42.3912 24.7 40.9 24.7H38.2C36.7089 24.7 35.5 23.4912 35.5 22C35.5 20.5088 36.7089 19.3 38.2 19.3H40.9C42.3912 19.3 43.6 20.5088 43.6 22Z" fill="#A6E5B8"/>
<path d="M8.63553 12.454C9.68995 13.5084 11.3995 13.5084 12.4539 12.454C13.5083 11.3995 13.5083 9.69 12.4539 8.63558L10.5447 6.72639C9.49031 5.67198 7.78076 5.67198 6.72634 6.72639C5.67193 7.78081 5.67193 9.49035 6.72634 10.5448L8.63553 12.454Z" fill="#A6E5B8"/>
<path d="M8.50002 22C8.50002 23.4912 7.29119 24.7 5.80002 24.7H3.10002C1.60886 24.7 0.400024 23.4912 0.400024 22C0.400024 20.5088 1.60886 19.3 3.10002 19.3H5.80002C7.29119 19.3 8.50002 20.5088 8.50002 22Z" fill="#A6E5B8"/>
<path d="M16.6 38.2V35.5H27.4V38.2C27.4 41.1823 24.9824 43.6 22 43.6C19.0177 43.6 16.6 41.1823 16.6 38.2Z" fill="#A6E5B8"/>
<path d="M27.4024 32.8C27.4418 31.8811 27.9605 31.055 28.6874 30.4811C31.1923 28.5032 32.8 25.4394 32.8 22C32.8 16.0353 27.9647 11.2 22 11.2C16.0353 11.2 11.2 16.0353 11.2 22C11.2 25.4394 12.8077 28.5032 15.3126 30.4811C16.0395 31.055 16.5582 31.8811 16.5976 32.8H27.4024Z" fill="#A6E5B8"/>
</svg>
