<svg width="40" height="40" viewBox="0 0 40 40" fill="none" xmlns="http://www.w3.org/2000/svg">
<path d="M20 4C14.4772 4 10 8.47715 10 14V18C7.79086 18 6 19.7909 6 22V32C6 34.2091 7.79086 36 10 36H30C32.2091 36 34 34.2091 34 32V22C34 19.7909 32.2091 18 30 18H14V14C14 10.6863 16.6863 8 20 8C22.793 8 25.1449 9.91025 25.8111 12.4985C26.0864 13.5682 27.1768 14.2122 28.2465 13.9369C29.3162 13.6616 29.9602 12.5712 29.6848 11.5015C28.5748 7.18885 24.6623 4 20 4Z" fill="#A6E5B8" stroke="#0A59F8" stroke-width="2" stroke-linecap="round"/>
</svg>
